<svg width="16" height="16" viewBox="0 0 16 16" fill="none" xmlns="http://www.w3.org/2000/svg">
<path fill-rule="evenodd" clip-rule="evenodd" d="M2.86471 14.8502C2.78671 15.2942 3.22471 15.6412 3.61071 15.4432L8.00072 13.1872L12.3897 15.4432C12.7757 15.6412 13.2137 15.2942 13.1357 14.8512L12.3057 10.1212L15.8287 6.76517C16.1577 6.45117 15.9867 5.87717 15.5457 5.81517L10.6477 5.11917L8.46372 0.792167C8.42211 0.704456 8.35647 0.63035 8.27443 0.57846C8.19238 0.526569 8.09729 0.499023 8.00022 0.499023C7.90314 0.499023 7.80805 0.526569 7.72601 0.57846C7.64396 0.63035 7.57832 0.704456 7.53672 0.792167L5.35272 5.12017L0.454715 5.81617C0.0137145 5.87817 -0.157286 6.45217 0.171714 6.76617L3.69472 10.1222L2.86471 14.8522V14.8502ZM7.76972 12.0832L4.08371 13.9772L4.77771 10.0202C4.79397 9.92908 4.78761 9.83539 4.75919 9.74734C4.73077 9.65929 4.68116 9.57956 4.61472 9.51517L1.70871 6.74517L5.76072 6.16917C5.84462 6.1565 5.9242 6.12368 5.99265 6.07352C6.06109 6.02336 6.11636 5.95736 6.15372 5.88117L8.00072 2.22317L9.84671 5.88117C9.88407 5.95736 9.93934 6.02336 10.0078 6.07352C10.0762 6.12368 10.1558 6.1565 10.2397 6.16917L14.2917 6.74417L11.3857 9.51417C11.319 9.57861 11.2693 9.6585 11.2409 9.74676C11.2124 9.83502 11.2062 9.92893 11.2227 10.0202L11.9167 13.9772L8.23072 12.0832C8.15944 12.0464 8.08041 12.0272 8.00022 12.0272C7.92002 12.0272 7.84099 12.0464 7.76972 12.0832Z" fill="#F59700"/>
</svg>
